<?xml version="1.0" encoding="UTF-8"?>
<svg version="1.1" xmlns="http://www.w3.org/2000/svg" width="64" height="64">
<path d="M0 0 C3.03194346 1.01064782 4.68563964 1.57682259 6.625 4.1875 C10.22189029 6.93249522 13.40176149 5.92647101 17.734375 5.359375 C18.48203125 5.24078125 19.2296875 5.1221875 20 5 C23 11.5 23 11.5 23 16 C24.27875 16.144375 25.5575 16.28875 26.875 16.4375 C29.25692894 16.70642746 30.84452691 16.92226346 33 18 C33.45575083 24.38051158 32.66317335 28.68212218 29 34 C24.69495753 38.505277 20.0912858 40.91818764 14 42 C8.85117154 42.05292482 4.53259878 41.52041534 0 39 C-0.66 39.66 -1.32 40.32 -2 41 C-8.75018878 42.69711741 -14.81336121 42.15644836 -21 39 C-26.24369074 35.62978323 -29.21462039 32.09129515 -31 26 C-31.2106156 23.27635736 -31.14417474 20.73932003 -31 18 C-27.49223216 16.39644899 -24.85645121 15.77963136 -21 16 C-20.87625 14.741875 -20.7525 13.48375 -20.625 12.1875 C-20.30131941 8.89674737 -19.93395001 7.90092502 -18 5 C-17.37351562 5.0721875 -16.74703125 5.144375 -16.1015625 5.21875 C-15.28429688 5.3115625 -14.46703125 5.404375 -13.625 5.5 C-12.40683594 5.63921875 -12.40683594 5.63921875 -11.1640625 5.78125 C-7.97079013 6.21204094 -7.97079013 6.21204094 -5.2734375 4.6875 C-4.64695312 4.130625 -4.02046875 3.57375 -3.375 3 C-2.42753906 2.1646875 -2.42753906 2.1646875 -1.4609375 1.3125 C-0.97882812 0.879375 -0.49671875 0.44625 0 0 Z " fill="#B3CC89" transform="translate(31,11)"/>
</svg>
